<svg width="346" height="284" viewBox="0 0 346 284" fill="none" xmlns="http://www.w3.org/2000/svg">
<g clip-path="url(#clip0_1535_5071)">
<path d="M177.444 67.536H175.89V24.9019C175.89 18.3576 173.29 12.0813 168.663 7.45379C164.035 2.82627 157.759 0.226563 151.215 0.226563H60.8866C57.6462 0.22651 54.4375 0.864704 51.4438 2.10471C48.45 3.34471 45.7298 5.16223 43.4384 7.45351C41.1471 9.74479 39.3295 12.4649 38.0894 15.4587C36.8493 18.4524 36.211 21.6611 36.2109 24.9015V258.795C36.2109 262.036 36.8492 265.245 38.0892 268.238C39.3293 271.232 41.1469 273.952 43.4382 276.243C45.7295 278.535 48.4497 280.352 51.4434 281.592C54.4372 282.832 57.6458 283.471 60.8862 283.471H151.213C157.758 283.471 164.034 280.871 168.662 276.243C173.289 271.616 175.889 265.34 175.889 258.795V97.8836H177.443L177.444 67.536Z" fill="#3F3D56"/>
<path d="M170.858 23.2492V260.447C170.857 265.409 168.886 270.168 165.378 273.677C161.869 277.186 157.111 279.158 152.15 279.159H59.9684C55.0047 279.16 50.2439 277.189 46.7333 273.68C43.2226 270.171 41.2495 265.411 41.248 260.447V23.2492C41.2495 18.2857 43.2225 13.5259 46.733 10.0169C50.2435 6.5079 55.0041 4.53696 59.9676 4.5376H71.1497C70.6007 5.88783 70.3917 7.35226 70.5412 8.80218C70.6906 10.2521 71.194 11.6431 72.0069 12.8529C72.8199 14.0628 73.9176 15.0544 75.2035 15.7406C76.4895 16.4269 77.9243 16.7867 79.3819 16.7886H131.936C133.394 16.7867 134.828 16.4269 136.114 15.7406C137.4 15.0544 138.498 14.0628 139.311 12.8529C140.124 11.6431 140.627 10.2521 140.777 8.80218C140.926 7.35226 140.717 5.88783 140.168 4.5376H152.146C157.108 4.53844 161.866 6.50962 165.375 10.0178C168.884 13.5259 170.856 18.2839 170.858 23.2456V23.2492Z" fill="white"/>
<path d="M149.458 228.273H64.3259C61.2641 228.269 58.3287 227.051 56.1637 224.886C53.9986 222.721 52.7808 219.786 52.7773 216.724V96.9625C52.7773 67.8846 76.4338 44.228 105.512 44.228H149.458C152.52 44.2315 155.455 45.4493 157.62 47.6143C159.785 49.7793 161.003 52.7146 161.006 55.7764V216.724C161.003 219.786 159.785 222.721 157.62 224.886C155.455 227.051 152.52 228.269 149.458 228.273Z" fill="#E6E6E6"/>
<path d="M59.2276 257.101C62.6125 257.101 65.3565 254.357 65.3565 250.972C65.3565 247.587 62.6125 244.843 59.2276 244.843C55.8426 244.843 53.0986 247.587 53.0986 250.972C53.0986 254.357 55.8426 257.101 59.2276 257.101Z" fill="#E6E6E6"/>
<path d="M154.679 257.101C158.064 257.101 160.808 254.357 160.808 250.972C160.808 247.587 158.064 244.843 154.679 244.843C151.294 244.843 148.55 247.587 148.55 250.972C148.55 254.357 151.294 257.101 154.679 257.101Z" fill="#E6E6E6"/>
<path d="M155.51 228.037L151.71 232.178L133.932 219.493L139.539 213.382L155.51 228.037Z" fill="#FFB6B6"/>
<path d="M160.492 230.664L148.241 244.014L148.072 243.859C146.694 242.595 145.875 240.834 145.795 238.966C145.714 237.097 146.38 235.273 147.644 233.895L147.644 233.894L148.032 229.758L154.057 226.906L155.127 225.74L160.492 230.664Z" fill="#2F2E41"/>
<path d="M157.994 274.243L152.375 274.243L149.701 252.567L157.995 252.568L157.994 274.243Z" fill="#FFB6B6"/>
<path d="M159.426 279.69L141.307 279.689V279.46C141.307 277.59 142.05 275.796 143.372 274.473C144.695 273.151 146.489 272.408 148.359 272.407H148.36L151.67 269.896L157.845 272.408L159.427 272.408L159.426 279.69Z" fill="#2F2E41"/>
<path d="M130.856 164.822C130.856 164.822 96.5274 197.967 118.23 208.227H124.937C124.937 208.227 126.953 201.065 131.568 195.026C132.202 194.197 134.576 194.365 135.235 193.557C139.261 188.622 143.625 184.383 146.64 184.552L148.612 207.438L147.639 214.145C147.026 218.368 147.188 222.667 148.115 226.832L147.429 253.604L159.465 253.611C159.465 253.611 159.952 247.336 160.358 239.489C160.467 237.387 161.371 235.922 161.458 233.684C161.666 228.319 160.977 222.075 160.845 217.697L169.92 169.557L130.856 164.822Z" fill="#2F2E41"/>
<path d="M146.712 94.5957L141.114 102.084L127.698 109.975L135.589 130.493L135.889 145.759L135.154 147.601L135.984 150.617C135.984 150.617 135.601 154.147 133.56 156.767C129.992 161.349 124.543 166.329 130.065 167.584C138.746 169.557 169.524 173.897 171.102 170.346C171.648 169.118 171.58 163.924 171.258 157.654C171.197 156.482 169.902 155.206 169.827 153.977C169.77 153.056 170.935 152.188 170.872 151.253C170.168 140.834 169.129 130.099 169.129 130.099L172.218 101.371L159.863 98.1825L158.476 94.6466L146.712 94.5957Z" fill="#1F1F7A"/>
<path d="M116.581 206.258L118.416 208.577C118.416 208.577 135.292 220.383 135.871 221.487L138.538 224.01L144.991 217.112L141.636 212.906C138.95 209.54 135.48 206.883 131.53 205.169L126.387 200.606L116.581 206.258Z" fill="#2F2E41"/>
<path d="M127.305 173.121L130.378 143.375L131.189 131.132L122.587 129.577C122.587 129.577 121.299 137.993 120.172 142.932C119.06 147.806 121.654 172.468 121.722 173.118C121.091 173.683 120.645 174.427 120.445 175.25C120.245 176.073 120.3 176.938 120.602 177.73C120.904 178.522 121.44 179.203 122.137 179.684C122.835 180.165 123.663 180.422 124.51 180.423C125.357 180.423 126.185 180.166 126.883 179.686C127.581 179.206 128.118 178.525 128.42 177.734C128.723 176.942 128.779 176.078 128.58 175.254C128.38 174.43 127.936 173.686 127.305 173.121Z" fill="#FFB9B9"/>
<path d="M116.191 148.372L131.04 152.141L130.937 147.973L132.064 146.777L134.315 134.982L137.546 128.072L136.706 104.443L128.501 108.795L128.491 108.803C127.058 110.379 125.86 112.154 124.933 114.071C121.84 120.36 118.868 134.211 117.313 142.256C117.259 142.424 117.156 142.573 117.017 142.682C116.245 143.39 115.742 144.343 115.591 145.38C115.441 146.416 115.652 147.473 116.191 148.372L116.191 148.372Z" fill="#1F1F7A"/>
<path d="M204.371 155.966C204.371 155.966 186.294 136.908 186.125 136.549C184.863 126.96 181.231 122.73 180.686 123.189L171.312 126.436C171.312 126.436 174.101 135.266 175.989 140.51C177.792 145.522 198.583 157.762 198.93 158.366C198.557 159.189 198.443 160.105 198.602 160.994C198.762 161.882 199.188 162.702 199.823 163.343C200.458 163.985 201.273 164.419 202.16 164.587C203.047 164.755 203.965 164.65 204.791 164.286C205.617 163.921 206.313 163.315 206.787 162.546C207.26 161.778 207.49 160.883 207.444 159.981C207.399 159.08 207.081 158.213 206.532 157.496C205.983 156.779 205.23 156.246 204.371 155.966H204.371Z" fill="#FFB9B9"/>
<path d="M163.743 102.026C163.743 102.026 172.945 97.5166 176.514 106.374C178.471 111.374 183.475 123.51 185.968 130.981C185.985 131.028 186.008 131.073 186.036 131.115C186.703 132.106 187.063 133.272 187.071 134.466C187.07 134.553 187.079 134.64 187.098 134.725C187.098 134.725 176.986 136.695 173.979 141.995L172.786 140.701L172.574 139.794L163.849 116.515L163.743 102.026Z" fill="#1F1F7A"/>
<path d="M314.016 138.176H206.283C205.323 138.175 204.403 137.794 203.724 137.115C203.045 136.436 202.663 135.516 202.662 134.556V118.777C202.663 117.817 203.045 116.897 203.724 116.218C204.403 115.54 205.323 115.158 206.283 115.157H314.016C314.976 115.158 315.896 115.54 316.575 116.218C317.254 116.897 317.635 117.817 317.636 118.777V134.556C317.635 135.516 317.254 136.436 316.575 137.115C315.896 137.794 314.976 138.175 314.016 138.176Z" fill="#E6E6E6"/>
<path d="M303.549 135.734H208.726C207.766 135.733 206.846 135.352 206.167 134.673C205.488 133.994 205.107 133.074 205.105 132.114V121.222C205.107 120.262 205.488 119.342 206.167 118.663C206.846 117.984 207.766 117.602 208.726 117.601H311.574C312.534 117.602 313.454 117.984 314.133 118.663C314.812 119.342 315.194 120.262 315.195 121.222V124.088C315.191 127.176 313.963 130.136 311.78 132.32C309.597 134.503 306.636 135.731 303.549 135.734Z" fill="white"/>
<path d="M270.84 125.544H227.539C227.292 125.544 227.054 125.446 226.879 125.271C226.704 125.096 226.605 124.858 226.605 124.611C226.605 124.363 226.704 124.125 226.879 123.95C227.054 123.775 227.292 123.677 227.539 123.677H270.84C271.087 123.677 271.325 123.775 271.5 123.95C271.675 124.125 271.773 124.363 271.773 124.611C271.773 124.858 271.675 125.096 271.5 125.271C271.325 125.446 271.087 125.544 270.84 125.544Z" fill="#1F1F7A"/>
<path d="M292.759 129.364H227.539C227.292 129.364 227.054 129.265 226.879 129.09C226.704 128.915 226.605 128.678 226.605 128.43C226.605 128.182 226.704 127.945 226.879 127.77C227.054 127.594 227.292 127.496 227.539 127.496H292.759C293.007 127.496 293.244 127.594 293.419 127.77C293.594 127.945 293.693 128.182 293.693 128.43C293.693 128.678 293.594 128.915 293.419 129.09C293.244 129.265 293.007 129.364 292.759 129.364Z" fill="#E6E6E6"/>
<path d="M314.016 171.654H206.283C205.323 171.652 204.403 171.271 203.724 170.592C203.045 169.913 202.663 168.993 202.662 168.033V152.254C202.663 151.295 203.045 150.374 203.724 149.695C204.403 149.017 205.323 148.635 206.283 148.634H314.016C314.976 148.635 315.896 149.017 316.575 149.695C317.254 150.374 317.635 151.295 317.636 152.254V168.033C317.635 168.993 317.254 169.913 316.575 170.592C315.896 171.271 314.976 171.652 314.016 171.654Z" fill="#E6E6E6"/>
<path d="M303.549 169.211H208.726C207.766 169.21 206.846 168.829 206.167 168.15C205.488 167.471 205.107 166.551 205.105 165.591V154.699C205.107 153.739 205.488 152.819 206.167 152.14C206.846 151.461 207.766 151.079 208.726 151.078H311.574C312.534 151.079 313.454 151.461 314.133 152.14C314.812 152.819 315.194 153.739 315.195 154.699V157.565C315.191 160.653 313.963 163.613 311.78 165.797C309.597 167.98 306.636 169.208 303.549 169.211Z" fill="white"/>
<path d="M270.84 159.021H227.539C227.417 159.021 227.295 158.997 227.182 158.95C227.069 158.903 226.966 158.835 226.879 158.748C226.792 158.661 226.723 158.558 226.677 158.445C226.63 158.332 226.605 158.21 226.605 158.088C226.605 157.965 226.63 157.844 226.677 157.73C226.723 157.617 226.792 157.514 226.879 157.427C226.966 157.341 227.069 157.272 227.182 157.225C227.295 157.178 227.417 157.154 227.539 157.154H270.84C271.087 157.154 271.325 157.252 271.5 157.427C271.675 157.602 271.773 157.84 271.773 158.088C271.773 158.335 271.675 158.573 271.5 158.748C271.325 158.923 271.087 159.021 270.84 159.021Z" fill="#1F1F7A"/>
<path d="M292.759 162.84H227.539C227.417 162.84 227.295 162.816 227.182 162.769C227.069 162.722 226.966 162.653 226.879 162.567C226.792 162.48 226.723 162.377 226.677 162.264C226.63 162.15 226.605 162.029 226.605 161.906C226.605 161.784 226.63 161.662 226.677 161.549C226.723 161.436 226.792 161.333 226.879 161.246C226.966 161.159 227.069 161.091 227.182 161.044C227.295 160.997 227.417 160.973 227.539 160.973H292.759C293.007 160.973 293.244 161.071 293.419 161.246C293.594 161.421 293.693 161.659 293.693 161.906C293.693 162.154 293.594 162.392 293.419 162.567C293.244 162.742 293.007 162.84 292.759 162.84Z" fill="#E6E6E6"/>
<path d="M314.016 205.131H206.283C205.323 205.129 204.403 204.748 203.724 204.069C203.045 203.39 202.663 202.47 202.662 201.51V185.732C202.663 184.772 203.045 183.851 203.724 183.173C204.403 182.494 205.323 182.112 206.283 182.111H314.016C314.976 182.112 315.896 182.494 316.575 183.173C317.254 183.851 317.635 184.772 317.636 185.732V201.51C317.635 202.47 317.254 203.39 316.575 204.069C315.896 204.748 314.976 205.129 314.016 205.131Z" fill="#E6E6E6"/>
<path d="M303.549 202.689H208.726C207.766 202.687 206.846 202.306 206.167 201.627C205.488 200.948 205.107 200.028 205.105 199.068V188.176C205.107 187.216 205.488 186.296 206.167 185.617C206.846 184.938 207.766 184.556 208.726 184.555H311.574C312.534 184.556 313.454 184.938 314.133 185.617C314.812 186.296 315.194 187.216 315.195 188.176V191.042C315.191 194.13 313.963 197.09 311.78 199.274C309.597 201.457 306.636 202.685 303.549 202.689Z" fill="white"/>
<path d="M270.84 192.498H227.539C227.292 192.498 227.054 192.4 226.879 192.225C226.704 192.05 226.605 191.812 226.605 191.565C226.605 191.317 226.704 191.079 226.879 190.904C227.054 190.729 227.292 190.631 227.539 190.631H270.84C271.087 190.631 271.325 190.729 271.5 190.904C271.675 191.079 271.773 191.317 271.773 191.565C271.773 191.812 271.675 192.05 271.5 192.225C271.325 192.4 271.087 192.498 270.84 192.498Z" fill="#1F1F7A"/>
<path d="M292.759 196.317H227.539C227.292 196.317 227.054 196.219 226.879 196.044C226.704 195.869 226.605 195.631 226.605 195.383C226.605 195.136 226.704 194.898 226.879 194.723C227.054 194.548 227.292 194.45 227.539 194.45H292.759C293.007 194.45 293.244 194.548 293.419 194.723C293.594 194.898 293.693 195.136 293.693 195.383C293.693 195.631 293.594 195.869 293.419 196.044C293.244 196.219 293.007 196.317 292.759 196.317Z" fill="#E6E6E6"/>
<path d="M152.611 92.192C158.834 92.192 163.879 87.1474 163.879 80.9246C163.879 74.7018 158.834 69.6572 152.611 69.6572C146.388 69.6572 141.344 74.7018 141.344 80.9246C141.344 87.1474 146.388 92.192 152.611 92.192Z" fill="#FFB9B9"/>
<path d="M144.326 88.171C144.191 88.1715 144.057 88.1499 143.929 88.1069C143.426 87.8864 143.005 87.5128 142.728 87.0392C140.788 84.2491 139.851 80.5292 139.944 75.9826C139.983 74.0591 140.201 71.5998 141.548 69.6395C142.681 67.9911 144.972 66.683 147.108 67.3396C147.083 66.9126 147.178 66.4872 147.381 66.1109C147.585 65.7346 147.889 65.4222 148.259 65.2086C149.068 64.7132 150.042 64.622 150.901 64.5413C153.07 64.338 155.312 64.1279 157.508 64.544C159.97 65.0111 161.984 66.2803 163.032 68.0262L163.053 68.0811L163.266 69.1157C163.295 69.2548 163.353 69.386 163.438 69.5003C163.522 69.6147 163.63 69.7094 163.754 69.778C163.879 69.8465 164.016 69.8874 164.158 69.8976C164.3 69.9079 164.442 69.8873 164.575 69.8373C164.72 69.7827 164.876 69.7668 165.029 69.7913C165.183 69.8158 165.327 69.8798 165.447 69.977C165.568 70.0741 165.661 70.2011 165.718 70.3453C165.775 70.4896 165.793 70.6461 165.771 70.7995L165.711 71.2111L166.331 71.0952C166.486 71.0663 166.646 71.079 166.794 71.132C166.943 71.185 167.074 71.2764 167.176 71.3969C167.278 71.5174 167.345 71.6626 167.373 71.8179C167.4 71.9732 167.385 72.1329 167.331 72.2808L167.156 72.754C167.284 72.7548 167.411 72.7819 167.528 72.8336C167.645 72.8852 167.751 72.9603 167.838 73.0543C167.963 73.189 168.042 73.3603 168.063 73.5431C168.084 73.7259 168.046 73.9106 167.955 74.0702C167.263 75.2539 166.281 76.242 165.101 76.9414C164.457 77.3292 163.752 77.6064 163.016 77.7615C158.239 78.7923 153.315 78.9404 148.485 78.1984C148.771 79.151 148.881 80.1477 148.81 81.1397C148.655 82.3801 147.927 83.4037 146.954 83.7474C146.733 83.8194 146.506 83.8741 146.276 83.9109C146.057 83.9452 145.84 83.9978 145.629 84.0683C145.316 84.1831 145.039 84.3785 144.826 84.6345C144.613 84.8906 144.471 85.1984 144.415 85.5268C144.359 85.8552 144.39 86.1926 144.506 86.505C144.622 86.8174 144.818 87.0938 145.074 87.3062L145.554 86.8064L145.398 87.4418C145.365 87.5655 145.307 87.6809 145.227 87.7807C145.147 87.8804 145.047 87.9621 144.933 88.0206C144.746 88.1202 144.538 88.1719 144.326 88.171Z" fill="#2F2E41"/>
<path d="M301.068 258.3L301.524 248.05C306.276 245.51 311.576 244.168 316.965 244.142C309.549 250.205 310.476 261.893 305.448 270.046C303.86 272.577 301.723 274.719 299.195 276.311C296.668 277.904 293.814 278.908 290.846 279.248L284.639 283.048C283.788 278.3 283.976 273.425 285.19 268.757C286.404 264.089 288.616 259.74 291.672 256.009C293.408 253.933 295.398 252.084 297.596 250.505C299.082 254.425 301.068 258.3 301.068 258.3Z" fill="#F2F2F2"/>
<path d="M345.5 283.299C345.5 283.361 345.488 283.423 345.464 283.481C345.44 283.538 345.406 283.591 345.361 283.635C345.317 283.679 345.265 283.714 345.207 283.737C345.15 283.761 345.088 283.773 345.026 283.773H0.974258C0.848477 283.773 0.727852 283.723 0.638912 283.634C0.549972 283.545 0.5 283.425 0.5 283.299C0.5 283.173 0.549972 283.053 0.638912 282.964C0.727852 282.875 0.848477 282.825 0.974258 282.825H345.026C345.088 282.825 345.15 282.837 345.207 282.86C345.265 282.884 345.317 282.919 345.361 282.963C345.406 283.007 345.44 283.06 345.464 283.117C345.488 283.175 345.5 283.237 345.5 283.299Z" fill="#CCCCCC"/>
</g>
<defs>
<clipPath id="clip0_1535_5071">
<rect width="345" height="283.547" fill="white" transform="translate(0.5 0.226562)"/>
</clipPath>
</defs>
</svg>
