<svg width="246" height="230" viewBox="0 0 246 230" fill="none" xmlns="http://www.w3.org/2000/svg">
<g clip-path="url(#clip0_1535_5110)">
<path d="M227.19 175.858L238.203 177.579C241.931 173.065 244.501 167.709 245.69 161.977C237.637 168.569 225.39 165.066 215.625 168.665C212.588 169.811 209.848 171.625 207.608 173.974C205.367 176.323 203.684 179.146 202.683 182.234L197.301 188.025C202.173 189.954 207.405 190.804 212.637 190.516C217.869 190.228 222.977 188.809 227.607 186.356C230.192 184.955 232.589 183.234 234.743 181.233C230.89 178.807 227.19 175.858 227.19 175.858Z" fill="#F2F2F2"/>
<path d="M223.28 158.242L233.905 154.871C235.229 149.168 235.14 143.228 233.648 137.567C229.38 147.06 216.856 149.386 209.721 156.963C207.514 159.343 205.871 162.189 204.913 165.291C203.955 168.392 203.708 171.67 204.189 174.88L201.954 182.464C207.175 182.017 212.237 180.444 216.791 177.853C221.346 175.261 225.284 171.713 228.336 167.453C230.024 165.046 231.402 162.436 232.438 159.685C227.907 159.232 223.28 158.242 223.28 158.242Z" fill="#F2F2F2"/>
<path d="M245.749 191.533C245.749 191.59 245.738 191.646 245.716 191.699C245.694 191.751 245.663 191.799 245.622 191.839C245.582 191.879 245.534 191.911 245.482 191.933C245.429 191.954 245.373 191.966 245.316 191.965H0.683352C0.568679 191.965 0.458701 191.92 0.377615 191.839C0.29653 191.758 0.250977 191.648 0.250977 191.533C0.250977 191.418 0.29653 191.308 0.377615 191.227C0.458701 191.146 0.568679 191.101 0.683352 191.101H245.316C245.373 191.1 245.429 191.111 245.482 191.133C245.534 191.155 245.582 191.187 245.622 191.227C245.663 191.267 245.694 191.315 245.716 191.367C245.738 191.42 245.749 191.476 245.749 191.533Z" fill="#CCCCCC"/>
<path d="M101.622 173.099C144.765 173.099 179.74 138.122 179.74 94.9762C179.74 51.8302 144.765 16.8535 101.622 16.8535C58.4785 16.8535 23.5039 51.8302 23.5039 94.9762C23.5039 138.122 58.4785 173.099 101.622 173.099Z" fill="#E6E6E6"/>
<path d="M168.84 94.9762C168.848 105.465 166.398 115.81 161.686 125.182C156.975 134.553 150.133 142.689 141.709 148.939C141.146 149.361 140.572 149.771 139.994 150.171C128.73 158.001 115.34 162.198 101.622 162.198C87.9039 162.198 74.514 158.001 63.2498 150.171C62.6721 149.771 62.098 149.361 61.5348 148.939C53.1172 142.684 46.2796 134.546 41.5687 125.176C36.8578 115.806 34.4043 105.464 34.4043 94.9762C34.4043 84.4885 36.8578 74.1463 41.5687 64.7763C46.2796 55.4063 53.1172 47.2685 61.5348 41.0134C62.098 40.5919 62.6721 40.1813 63.2498 39.7816C74.514 31.9513 87.9039 27.7544 101.622 27.7544C115.34 27.7544 128.73 31.9513 139.994 39.7816C140.572 40.1813 141.146 40.5919 141.709 41.0134C150.133 47.263 156.975 55.3997 161.686 64.7709C166.398 74.1422 168.848 84.4871 168.84 94.9762Z" fill="white"/>
<path d="M101.622 156.384C135.535 156.384 163.027 128.891 163.027 94.9759C163.027 61.0612 135.535 33.5679 101.622 33.5679C67.7095 33.5679 40.2178 61.0612 40.2178 94.9759C40.2178 128.891 67.7095 156.384 101.622 156.384Z" fill="#1F1F7A"/>
<path opacity="0.2" d="M101.782 33.7397C100.851 33.7397 99.9262 33.7641 99.0055 33.8051C114.525 35.1689 128.946 42.3815 139.347 53.9816C149.747 65.5816 155.35 80.7017 155.019 96.2785C154.689 111.855 148.45 126.724 137.566 137.872C126.683 149.021 111.969 155.615 96.4053 156.319C98.1776 156.473 99.9701 156.556 101.782 156.556C118.068 156.556 133.686 150.086 145.202 138.57C156.717 127.054 163.187 111.434 163.187 95.1478C163.187 78.8614 156.717 63.242 145.202 51.7258C133.686 40.2095 118.068 33.7398 101.782 33.7398V33.7397Z" fill="black"/>
<path d="M101.804 29.2075C101.274 29.2084 100.767 29.4193 100.392 29.7939C100.017 30.1685 99.8066 30.6763 99.8057 31.206V39.9267C99.8057 40.4567 100.016 40.965 100.391 41.3398C100.766 41.7146 101.274 41.9252 101.804 41.9252C102.334 41.9252 102.842 41.7146 103.217 41.3398C103.592 40.965 103.802 40.4567 103.802 39.9267V31.206C103.801 30.6763 103.591 30.1685 103.216 29.7939C102.841 29.4193 102.334 29.2084 101.804 29.2075Z" fill="white"/>
<path d="M141.71 41.0129C141.146 40.5914 140.572 40.1808 139.995 39.7811C139.648 39.7585 139.301 39.8267 138.989 39.979C138.677 40.1313 138.41 40.3624 138.214 40.6495L133.306 47.855C133.007 48.293 132.895 48.8315 132.994 49.3521C133.093 49.8727 133.394 50.3328 133.832 50.631C134.27 50.9293 134.809 51.0414 135.329 50.9426C135.85 50.8438 136.31 50.5422 136.608 50.1042L141.517 42.8987C141.704 42.6254 141.819 42.3096 141.853 41.9803C141.886 41.6509 141.837 41.3184 141.71 41.0129Z" fill="white"/>
<path d="M164.011 73.8682C163.913 73.6253 163.767 73.4041 163.583 73.2175C163.399 73.0309 163.18 72.8823 162.938 72.7804C162.697 72.6785 162.437 72.6252 162.175 72.6236C161.913 72.6219 161.653 72.672 161.41 72.7708L153.329 76.052C152.839 76.2518 152.448 76.6382 152.242 77.1262C152.036 77.6143 152.033 78.1641 152.232 78.6548C152.431 79.1455 152.817 79.537 153.305 79.7432C153.793 79.9495 154.343 79.9536 154.834 79.7546L162.914 76.4735C163.404 76.2727 163.795 75.8858 164.001 75.3975C164.207 74.9092 164.21 74.3593 164.011 73.8682Z" fill="white"/>
<path d="M69.9394 47.855L65.0307 40.6495C64.8351 40.3624 64.568 40.1313 64.2558 39.979C63.9436 39.8267 63.597 39.7585 63.2504 39.7811C62.6727 40.1808 62.0986 40.5914 61.5354 41.0129C61.4077 41.3184 61.3585 41.6509 61.3921 41.9803C61.4257 42.3096 61.5412 42.6254 61.728 42.8987L66.6367 50.1042C66.9349 50.5422 67.395 50.8438 67.9155 50.9426C68.4361 51.0414 68.9746 50.9293 69.4126 50.631C69.8506 50.3328 70.1521 49.8727 70.2509 49.3521C70.3497 48.8315 70.2377 48.293 69.9394 47.855Z" fill="white"/>
<path d="M49.9156 76.052L41.8349 72.7708C41.3439 72.5715 40.7939 72.5753 40.3058 72.7814C39.8176 72.9876 39.4314 73.3792 39.2319 73.8701C39.0325 74.3611 39.0362 74.9111 39.2422 75.3994C39.4483 75.8876 39.8398 76.2739 40.3307 76.4735L48.4113 79.7546C48.9022 79.9536 49.452 79.9494 49.9398 79.7432C50.4276 79.537 50.8136 79.1455 51.013 78.6548C51.2123 78.1641 51.2087 77.6143 51.003 77.1262C50.7972 76.6382 50.4061 76.2518 49.9156 76.052V76.052Z" fill="white"/>
<path d="M101.804 148.027C101.274 148.028 100.767 148.239 100.392 148.613C100.017 148.988 99.8066 149.496 99.8057 150.025V158.746C99.8057 159.276 100.016 159.784 100.391 160.159C100.766 160.534 101.274 160.745 101.804 160.745C102.334 160.745 102.842 160.534 103.217 160.159C103.592 159.784 103.802 159.276 103.802 158.746V150.025C103.801 149.496 103.591 148.988 103.216 148.613C102.841 148.239 102.334 148.028 101.804 148.027Z" fill="white"/>
<path d="M141.517 147.053L136.608 139.848C136.461 139.631 136.272 139.445 136.052 139.301C135.833 139.157 135.587 139.058 135.329 139.009C135.072 138.96 134.807 138.963 134.55 139.016C134.293 139.069 134.049 139.173 133.832 139.321C133.615 139.468 133.43 139.657 133.286 139.877C133.142 140.096 133.043 140.342 132.994 140.6C132.945 140.857 132.947 141.122 133.001 141.379C133.054 141.636 133.158 141.88 133.306 142.097L138.214 149.302C138.41 149.589 138.677 149.82 138.989 149.973C139.301 150.125 139.648 150.193 139.995 150.171C140.572 149.771 141.146 149.36 141.71 148.939C141.837 148.633 141.886 148.301 141.853 147.971C141.819 147.642 141.704 147.326 141.517 147.053Z" fill="white"/>
<path d="M162.914 113.478L154.833 110.197C154.342 109.998 153.792 110.002 153.304 110.208C152.816 110.414 152.429 110.805 152.23 111.296C152.031 111.787 152.034 112.337 152.24 112.826C152.446 113.314 152.838 113.7 153.329 113.9L161.409 117.181C161.9 117.38 162.45 117.376 162.938 117.169C163.426 116.963 163.812 116.572 164.011 116.081C164.21 115.59 164.207 115.041 164.001 114.552C163.795 114.064 163.404 113.678 162.914 113.478V113.478Z" fill="white"/>
<path d="M69.4126 139.321C68.9746 139.023 68.4361 138.911 67.9155 139.01C67.395 139.108 66.935 139.41 66.6367 139.848L61.728 147.053C61.5412 147.327 61.4257 147.642 61.3921 147.972C61.3585 148.301 61.4077 148.634 61.5354 148.939C62.0986 149.361 62.6727 149.771 63.2504 150.171C63.597 150.194 63.9436 150.125 64.2558 149.973C64.568 149.821 64.8351 149.59 65.0307 149.302L69.9394 142.097C70.0871 141.88 70.1907 141.636 70.2441 141.379C70.2976 141.123 70.2999 140.858 70.251 140.6C70.2021 140.342 70.1028 140.096 69.959 139.877C69.8151 139.658 69.6294 139.469 69.4126 139.321Z" fill="white"/>
<path d="M51.0125 111.294C50.9138 111.052 50.7682 110.83 50.584 110.644C50.3998 110.457 50.1807 110.309 49.9391 110.207C49.6975 110.105 49.4382 110.051 49.176 110.05C48.9138 110.048 48.6538 110.098 48.411 110.197L40.3303 113.478C39.8398 113.678 39.4487 114.064 39.2429 114.553C39.0371 115.041 39.0335 115.59 39.2329 116.081C39.4322 116.572 39.8182 116.963 40.3061 117.169C40.7939 117.376 41.3437 117.38 41.8345 117.181L49.9152 113.9C50.4055 113.699 50.7962 113.312 51.0019 112.824C51.2075 112.335 51.2113 111.786 51.0125 111.294Z" fill="white"/>
<path d="M104.397 93.9846C104.581 95.0769 104.325 96.1979 103.684 97.1016C103.043 98.0052 102.07 98.6177 100.978 98.8047L65.5168 104.837C64.9758 104.929 64.4221 104.914 63.8871 104.792C63.3521 104.67 62.8464 104.443 62.3988 104.126C61.9512 103.808 61.5706 103.406 61.2786 102.941C60.9865 102.477 60.7889 101.959 60.6969 101.418C60.6048 100.877 60.6203 100.323 60.7423 99.7884C60.8643 99.2534 61.0905 98.7477 61.4079 98.3001C61.7253 97.8525 62.1278 97.4718 62.5924 97.1798C63.057 96.8877 63.5745 96.6901 64.1154 96.598L99.5767 90.5658C100.669 90.3812 101.79 90.6376 102.694 91.2785C103.597 91.9194 104.21 92.8926 104.397 93.9846Z" fill="#3F3D56"/>
<path d="M141.719 133.275C141.21 133.787 140.518 134.077 139.795 134.08C139.073 134.083 138.379 133.799 137.865 133.29L99.6917 95.4139C99.1794 94.9047 98.8902 94.2129 98.8877 93.4906C98.8852 92.7682 99.1696 92.0744 99.6783 91.5617C100.187 91.0489 100.878 90.7591 101.601 90.7559C102.323 90.7527 103.017 91.0364 103.53 91.5447L141.704 129.421C142.216 129.931 142.505 130.622 142.508 131.345C142.511 132.068 142.227 132.762 141.719 133.275Z" fill="#3F3D56"/>
<path d="M101.622 99.6998C104.231 99.6998 106.345 97.585 106.345 94.9761C106.345 92.3673 104.231 90.2524 101.622 90.2524C99.0132 90.2524 96.8984 92.3673 96.8984 94.9761C96.8984 97.585 99.0132 99.6998 101.622 99.6998Z" fill="#CCCCCC"/>
<path d="M69.0872 13.0664C61.8368 24.466 50.7744 32.0313 37.1316 37.0012C36.862 37.2031 36.5553 37.35 36.2289 37.4333C35.9026 37.5167 35.5631 37.535 35.2297 37.4871C34.8963 37.4393 34.5756 37.3262 34.2859 37.1544C33.9962 36.9826 33.7431 36.7554 33.5412 36.4858C26.1306 26.5906 27.8039 12.4483 37.5844 4.88725C39.949 3.06241 42.6525 1.72547 45.5379 0.954067C48.4234 0.182659 51.4333 -0.00786102 54.393 0.393572C57.3527 0.795006 60.2032 1.78039 62.7789 3.29253C65.3547 4.80466 67.6045 6.81343 69.3976 9.20219L69.6026 9.47588C69.8045 9.74549 69.9513 10.0522 70.0347 10.3786C70.1181 10.7049 70.1363 11.0445 70.0885 11.3779C70.0406 11.7113 69.9276 12.032 69.7558 12.3218C69.584 12.6115 69.3568 12.8645 69.0872 13.0664Z" fill="#E6E6E6"/>
<path d="M133.847 9.20219C135.64 6.81342 137.89 4.80466 140.465 3.29252C143.041 1.78039 145.892 0.795007 148.851 0.393574C151.811 -0.00785953 154.821 0.182655 157.706 0.954063C160.592 1.72547 163.295 3.0624 165.66 4.88724C175.441 12.4483 177.114 26.5906 169.703 36.4858C169.501 36.7554 169.248 36.9826 168.959 37.1544C168.669 37.3262 168.348 37.4393 168.015 37.4871C167.681 37.535 167.342 37.5167 167.015 37.4333C166.689 37.35 166.382 37.2031 166.113 37.0012C153.448 32.152 143.062 23.7605 134.157 13.0664C133.613 12.6586 133.253 12.0513 133.156 11.3779C133.059 10.7045 133.234 10.0204 133.642 9.47587L133.847 9.20219Z" fill="#E6E6E6"/>
<path d="M130.669 162.659C130.207 162.919 129.867 163.35 129.723 163.86C129.579 164.37 129.643 164.916 129.901 165.379L141.434 185.99C141.693 186.452 142.125 186.793 142.635 186.937C143.145 187.081 143.691 187.016 144.153 186.757C144.616 186.499 144.956 186.067 145.101 185.557C145.245 185.047 145.18 184.5 144.922 184.038L133.388 163.427C133.129 162.965 132.697 162.625 132.187 162.481C131.677 162.337 131.131 162.401 130.669 162.659Z" fill="#E6E6E6"/>
<path d="M69.8557 163.427L58.3226 184.038C58.0639 184.5 57.9996 185.046 58.1436 185.556C58.2877 186.066 58.6284 186.498 59.0909 186.757C59.5533 187.016 60.0996 187.08 60.6096 186.936C61.1196 186.792 61.5515 186.452 61.8104 185.989L73.3435 165.379C73.4717 165.15 73.5536 164.898 73.5844 164.637C73.6152 164.376 73.5943 164.112 73.523 163.859C73.4517 163.607 73.3314 163.371 73.1688 163.165C73.0063 162.959 72.8047 162.786 72.5757 162.658C72.3467 162.53 72.0946 162.448 71.8339 162.418C71.5733 162.387 71.3091 162.408 71.0565 162.479C70.8039 162.55 70.5679 162.671 70.3619 162.833C70.1558 162.996 69.9838 163.198 69.8557 163.427H69.8557Z" fill="#E6E6E6"/>
<path d="M143.77 191.267C147.181 191.267 149.946 188.501 149.946 185.09C149.946 181.678 147.181 178.913 143.77 178.913C140.358 178.913 137.593 181.678 137.593 185.09C137.593 188.501 140.358 191.267 143.77 191.267Z" fill="#E6E6E6"/>
<path d="M148.129 33.2049C151.54 33.2049 154.306 30.4393 154.306 27.0277C154.306 23.6162 151.54 20.8506 148.129 20.8506C144.718 20.8506 141.952 23.6162 141.952 27.0277C141.952 30.4393 144.718 33.2049 148.129 33.2049Z" fill="#E6E6E6"/>
<path d="M101.259 18.6702C104.67 18.6702 107.436 15.9046 107.436 12.4931C107.436 9.08152 104.67 6.31592 101.259 6.31592C97.8475 6.31592 95.082 9.08152 95.082 12.4931C95.082 15.9046 97.8475 18.6702 101.259 18.6702Z" fill="#E6E6E6"/>
<path d="M56.5674 32.4783C59.9787 32.4783 62.7442 29.7127 62.7442 26.3012C62.7442 22.8896 59.9787 20.124 56.5674 20.124C53.1561 20.124 50.3906 22.8896 50.3906 26.3012C50.3906 29.7127 53.1561 32.4783 56.5674 32.4783Z" fill="#E6E6E6"/>
<path d="M60.5645 191.267C63.9758 191.267 66.7412 188.501 66.7412 185.09C66.7412 181.678 63.9758 178.913 60.5645 178.913C57.1531 178.913 54.3877 181.678 54.3877 185.09C54.3877 188.501 57.1531 191.267 60.5645 191.267Z" fill="#E6E6E6"/>
<path d="M138.925 129.801C139.168 130.182 139.492 130.505 139.874 130.748C140.256 130.99 140.687 131.146 141.135 131.204C141.584 131.262 142.04 131.221 142.471 131.084C142.902 130.947 143.298 130.717 143.63 130.41L153.322 135.604L152.803 129.913L143.678 125.854C143.126 125.329 142.401 125.025 141.64 125C140.878 124.974 140.134 125.229 139.548 125.716C138.963 126.202 138.575 126.887 138.46 127.64C138.346 128.393 138.511 129.162 138.925 129.801H138.925Z" fill="#FFB7B7"/>
<path d="M145.986 131.787L149.784 126.544L168.082 135.194L190.852 130.922C191.977 130.711 193.135 130.75 194.244 131.037C195.353 131.323 196.384 131.851 197.266 132.581C198.148 133.312 198.859 134.228 199.347 135.263C199.835 136.299 200.089 137.43 200.091 138.575C200.093 140.644 199.274 142.628 197.814 144.093C196.354 145.559 194.373 146.385 192.305 146.391L166.211 146.44L145.986 131.787Z" fill="#3F3D56"/>
<path d="M140.136 222.346L136.293 220.508L141.572 204.445L147.243 207.158L140.136 222.346Z" fill="#FFB7B7"/>
<path d="M165.899 219.756C165.62 219.931 165.341 220.103 165.058 220.276C164.497 220.62 163.929 220.959 163.362 221.292C163.077 221.458 162.789 221.625 162.504 221.789V221.797L162.487 221.8L162.481 221.803L162.047 221.91L161.423 220.262L161.135 219.502L160.728 218.427L159.983 216.459L156.06 206.099L162.159 204.595L162.388 205.529H162.391L162.504 205.992L164.635 214.636L165.07 216.403L165.084 216.456L165.346 217.512L165.572 218.427L165.823 219.449L165.899 219.756Z" fill="#FFB7B7"/>
<path d="M202.288 183.375C201.901 183.996 201.506 184.614 201.108 185.227C200.368 186.367 199.609 187.491 198.83 188.597C198.83 188.6 198.827 188.6 198.824 188.603C198.37 189.024 197.868 189.391 197.328 189.695C197.306 189.712 197.28 189.724 197.258 189.738C196.86 189.957 196.437 190.127 195.999 190.243C195.841 190.282 195.68 190.322 195.522 190.362C194.951 190.497 194.387 190.613 193.825 190.714C192.826 190.892 191.838 191.019 190.856 191.098C190.777 191.107 190.698 191.112 190.619 191.118C186.579 191.414 182.647 190.937 178.543 190.155C176.516 189.772 174.447 189.311 172.305 188.834C171.605 188.676 170.902 188.521 170.191 188.366C170.137 188.354 170.081 188.34 170.024 188.329C169.008 188.106 167.975 187.886 166.916 187.668C165.584 187.395 164.209 187.129 162.781 186.878L162.883 188.891C162.967 190.439 163.289 191.965 163.837 193.416C164.447 195.2 164.929 196.611 163.91 199.55L163.419 200.973C163.674 201.679 163.761 202.435 163.674 203.181C163.588 203.927 163.329 204.643 162.92 205.272L162.821 205.421L166.916 215.784L167.182 216.456H165.085L162.505 216.459H158.132L151.824 203.801L151.521 203.197V203.166L152.174 178.841C152.182 178.627 152.199 178.41 152.227 178.195C152.342 177.22 152.65 176.277 153.133 175.422C153.617 174.567 154.265 173.817 155.041 173.215C155.785 172.634 156.637 172.207 157.548 171.957C158.458 171.708 159.409 171.643 160.345 171.765L162.505 172.044L166.916 172.614L170.024 173.018L170.086 173.026L179.252 174.212L179.909 171.53L180.031 171.485L183.889 170.071L197.235 165.179L197.269 165.168L198.147 164.846L198.251 165.015C198.282 165.066 198.313 165.117 198.341 165.168C199.209 166.723 199.916 168.363 200.45 170.062C201.349 172.838 202.088 175.663 202.666 178.522C202.691 178.647 202.714 178.76 202.734 178.861L202.742 178.892C202.75 178.94 202.756 178.971 202.759 178.98C203.067 180.261 202.852 181.825 202.288 183.375Z" fill="#2F2E41"/>
<path d="M202.851 174.411C202.809 174.23 202.755 174.047 202.699 173.869C202.25 172.522 201.728 171.201 201.135 169.911C200.469 168.443 199.67 166.871 198.719 165.169C198.258 164.344 197.764 163.487 197.234 162.597C196.969 162.151 196.693 161.697 196.407 161.234C196.396 161.212 196.383 161.192 196.37 161.172L196.288 161.036L183.084 162.803L178.167 163.461L177.873 165.911L177.802 166.518C177.8 166.518 177.8 166.518 177.802 166.521L177.605 168.175V168.178L177.342 170.363L177.32 170.36L170.023 169.414L162.503 168.441L158.464 167.918C157.528 167.796 156.577 167.862 155.667 168.111C154.756 168.36 153.904 168.788 153.16 169.369C152.384 169.971 151.736 170.721 151.253 171.576C150.77 172.431 150.461 173.374 150.346 174.349C150.321 174.546 150.304 174.75 150.295 174.95L146.485 183.98C144.204 189.381 142.752 195.095 142.177 200.929L139.383 209.863L139.781 209.9L145.703 210.45L147.267 210.597L150.71 205.57C151.103 204.997 151.475 204.407 151.822 203.802C152.394 202.816 152.902 201.794 153.344 200.742L160.793 183.015C161.369 183.114 161.939 183.208 162.503 183.297C165.114 183.721 167.621 184.066 170.023 184.333C177.833 185.205 184.597 185.273 190.617 184.534C192.308 184.328 193.943 184.057 195.52 183.721C196.099 183.599 196.67 183.468 197.234 183.328C197.366 183.297 197.496 183.266 197.626 183.232C198.793 182.931 199.865 182.343 200.745 181.52C201.626 180.698 202.286 179.667 202.665 178.524C203.117 177.198 203.182 175.772 202.851 174.411Z" fill="#2F2E41"/>
<path d="M141.364 219.723L137.206 217.73L136.554 217.417L135.513 219.975L128.242 221.575C127.882 221.654 127.557 221.846 127.314 222.122C127.072 222.399 126.924 222.746 126.892 223.113C126.861 223.479 126.947 223.847 127.139 224.161C127.331 224.475 127.619 224.719 127.959 224.858L135.064 227.757L137.319 225.727L136.766 228.452L139.442 229.544L142.375 220.209L141.364 219.723Z" fill="#2F2E41"/>
<path d="M166.916 215.784L167.182 216.456H166.916V215.784Z" fill="#2F2E41"/>
<path d="M165.468 216.599L161.111 218.109L160.427 218.345L161.487 220.895L157.446 227.149C157.246 227.458 157.15 227.823 157.172 228.19C157.194 228.558 157.333 228.909 157.569 229.191C157.804 229.474 158.124 229.674 158.482 229.762C158.839 229.85 159.215 229.822 159.555 229.681L166.643 226.741L166.818 223.712L168.341 226.037L171.011 224.93L166.527 216.233L165.468 216.599Z" fill="#2F2E41"/>
<path d="M201.764 178.5C201.506 178.5 201.251 178.437 201.022 178.316L178.032 166.303L177.766 165.215L177.266 161.773L177.273 161.741L179.459 151.66C179.419 151.574 179.335 151.432 179.241 151.271C178.264 149.617 175.294 144.584 180.963 137.652L190.917 126.047L199.46 125.679L199.557 125.802C201.842 128.669 203.382 132.057 204.042 135.663C204.702 139.269 204.461 142.983 203.34 146.473L202.45 162.54L203.404 165.784C203.962 167.691 203.87 169.729 203.142 171.578L203.361 176.832C203.369 177.047 203.335 177.262 203.258 177.464C203.182 177.665 203.066 177.849 202.917 178.005C202.768 178.161 202.589 178.285 202.391 178.37C202.193 178.455 201.98 178.499 201.764 178.5L201.764 178.5Z" fill="#3F3D56"/>
<path d="M181.822 191.751C182.211 191.521 182.546 191.208 182.801 190.835C183.057 190.462 183.227 190.037 183.301 189.59C183.375 189.144 183.35 188.687 183.228 188.251C183.106 187.816 182.889 187.412 182.595 187.069L188.122 177.563L182.417 177.885L178.043 186.863C177.499 187.396 177.17 188.111 177.119 188.871C177.067 189.63 177.295 190.383 177.761 190.986C178.227 191.588 178.898 191.999 179.646 192.14C180.395 192.281 181.169 192.143 181.822 191.751L181.822 191.751Z" fill="#FFB7B7"/>
<path d="M184.052 184.762L178.944 180.783L188.225 162.796L184.748 139.891C184.576 138.759 184.655 137.602 184.981 136.504C185.306 135.406 185.869 134.393 186.629 133.537C187.39 132.681 188.33 132.003 189.382 131.551C190.434 131.099 191.573 130.885 192.717 130.922C194.785 130.993 196.739 131.88 198.153 133.39C199.566 134.9 200.323 136.909 200.257 138.977L199.398 165.058L184.052 184.762Z" fill="#3F3D56"/>
<path d="M185.438 121.225V112.77C185.436 109.766 186.627 106.884 188.75 104.758C190.873 102.632 193.754 101.437 196.758 101.435C199.762 101.433 202.644 102.624 204.77 104.747C206.896 106.871 208.091 109.751 208.093 112.756V112.77C210.09 116.931 208.841 118.909 208.093 121.225C208.093 121.628 207.932 122.014 207.647 122.299C207.362 122.585 206.975 122.745 206.572 122.746H186.959C186.556 122.745 186.169 122.585 185.884 122.3C185.599 122.015 185.438 121.628 185.438 121.225Z" fill="#2F2E41"/>
<path d="M193.051 122.196C197.734 122.196 201.53 118.4 201.53 113.717C201.53 109.033 197.734 105.237 193.051 105.237C188.368 105.237 184.571 109.033 184.571 113.717C184.571 118.4 188.368 122.196 193.051 122.196Z" fill="#FFB7B7"/>
<path d="M201.925 115.94C201.848 115.927 201.771 115.911 201.694 115.899C200.372 115.665 199.049 115.434 197.73 115.195L197.609 112.206L196.011 114.884C192.367 116.093 188.957 115.41 185.75 113.901C184.692 113.399 183.665 112.833 182.676 112.206C182.945 110.553 183.581 108.981 184.536 107.605C185.491 106.229 186.742 105.084 188.197 104.254C188.318 104.185 188.436 104.124 188.557 104.063C188.557 104.063 188.558 104.063 188.558 104.063C188.559 104.063 188.559 104.063 188.56 104.062C188.56 104.062 188.56 104.061 188.561 104.061C188.561 104.06 188.561 104.06 188.561 104.059C188.767 103.962 188.978 103.869 189.188 103.784C190.835 103.141 192.63 102.978 194.366 103.314C196.101 103.651 197.706 104.473 198.992 105.685C201.581 108.157 202.746 112.238 201.925 115.94Z" fill="#2F2E41"/>
</g>
<defs>
<clipPath id="clip0_1535_5110">
<rect width="245.498" height="229.625" fill="white" transform="translate(0.250977 0.1875)"/>
</clipPath>
</defs>
</svg>
